<svg id="20b7bb9d-3649-4f31-9109-398207bb49b1" data-name="Calque 1" xmlns="http://www.w3.org/2000/svg" viewBox="0 0 1185.68 78.45">
  <title>l-endroit-logo.inline</title>
  <g>
    <path d="M0,1.3H8.56V69.24H51.25v7.91H0Z"/>
    <path d="M61.87,22.1c5.53-2.06,7.69-4.77,7.26-9.43h-3.9V1.3h10v9.75c0,8.78-3.79,13-12,14.84Z"/>
    <path d="M93.61,1.3h54.83V9.1H102.17V35h41.39v7.8H102.17V69.35H149v7.8H93.61Z"/>
    <path d="M166.21,1.3h8L222,62.09V1.3h8.34V77.15h-6.83L174.55,15V77.15h-8.34Z"/>
    <path d="M251.81,1.3h26.33C302,1.3,318.44,17.66,318.44,39v.22c0,21.35-16.47,37.92-40.31,37.92H251.81Zm26.33,67.94c19.18,0,31.42-12.89,31.42-29.8v-.22c0-16.79-12.24-30-31.42-30H260.37v60Z"/>
    <path d="M336.54,1.3h32.61c9.43,0,16.79,2.82,21.56,7.58a20.5,20.5,0,0,1,5.85,15v.22c0,12.57-8.67,20-20.59,22.1l23.3,31H388.76l-22-29.47H345.1V77.15h-8.56ZM368.39,40c11.27,0,19.5-5.85,19.5-15.6v-.22c0-9.43-7.15-15-19.4-15H345.1V40Z"/>
    <path d="M411.52,39.44v-.22C411.52,18.31,427.23,0,450.31,0s38.57,18.09,38.57,39c.11.11.11.11,0,.22,0,20.91-15.71,39.22-38.79,39.22S411.52,60.35,411.52,39.44Zm68.48,0v-.22C480,22,467.43,7.91,450.09,7.91S420.4,21.78,420.4,39v.22c0,17.23,12.57,31.31,29.91,31.31S480,56.67,480,39.44Z"/>
    <path d="M507.73,1.3h8.56V77.15h-8.56Z"/>
    <path d="M558.55,9.21H533.08V1.3h59.59V9.21H567.21V77.15h-8.67Z"/>
  </g>
  <g>
    <path d="M1185.68,77.15h-8.56V9.21h-42.69V1.3h51.25Z"/>
    <path d="M1123.81,56.34c-5.53,2.06-7.69,4.77-7.26,9.43h3.9V77.15h-10V67.4c0-8.78,3.79-13,12-14.84Z"/>
    <path d="M1092.06,77.15h-54.83v-7.8h46.27V43.45h-41.39v-7.8h41.39V9.1h-46.81V1.3h55.37Z"/>
    <path d="M1019.47,77.15h-8L963.67,16.36V77.15h-8.34V1.3h6.83l49,62.19V1.3h8.34Z"/>
    <path d="M933.87,77.15H907.54c-23.84,0-40.31-16.36-40.31-37.71v-.22c0-21.35,16.47-37.92,40.31-37.92h26.33ZM907.54,9.21c-19.18,0-31.42,12.89-31.42,29.8v.22c0,16.79,12.24,30,31.42,30h17.77v-60Z"/>
    <path d="M849.14,77.15H816.53c-9.43,0-16.79-2.82-21.56-7.58a20.5,20.5,0,0,1-5.85-15v-.22c0-12.57,8.67-20,20.59-22.1l-23.3-31h10.51l22,29.47h21.67V1.3h8.56ZM817.28,38.47c-11.27,0-19.5,5.85-19.5,15.6v.22c0,9.43,7.15,15,19.4,15h23.4V38.47Z"/>
    <path d="M774.16,39v.22c0,20.91-15.71,39.22-38.79,39.22s-38.57-18.09-38.57-39c-.11-.11-.11-.11,0-.22C696.8,18.31,712.51,0,735.59,0S774.16,18.09,774.16,39Zm-68.48,0v.22c0,17.23,12.57,31.31,29.91,31.31s29.69-13.87,29.69-31.1v-.22c0-17.23-12.57-31.31-29.91-31.31S705.68,21.78,705.68,39Z"/>
    <path d="M677.95,77.15h-8.56V1.3h8.56Z"/>
    <path d="M627.13,69.24h25.46v7.91H593V69.24h25.46V1.3h8.67Z"/>
  </g>
</svg>
